<svg width="30" height="30" viewBox="0 0 30 30" fill="none" xmlns="http://www.w3.org/2000/svg">
<rect width="30" height="30" rx="15" fill="#F5FBF9"/>
<g clip-path="url(#clip0_416_4888)">
<path d="M15 19.1667C12.7 19.1667 10.8333 17.3 10.8333 15C10.8333 12.7 12.7 10.8333 15 10.8333C17.3 10.8333 19.1667 12.7 19.1667 15C19.1667 17.3 17.3 19.1667 15 19.1667ZM15.8333 8.33333V5.83333C15.8333 5.375 15.4583 5 15 5C14.5417 5 14.1667 5.375 14.1667 5.83333V8.33333C14.1667 8.79167 14.5417 9.16667 15 9.16667C15.4583 9.16667 15.8333 8.79167 15.8333 8.33333ZM15.8333 24.1667V21.6667C15.8333 21.2083 15.4583 20.8333 15 20.8333C14.5417 20.8333 14.1667 21.2083 14.1667 21.6667V24.1667C14.1667 24.625 14.5417 25 15 25C15.4583 25 15.8333 24.625 15.8333 24.1667ZM9.16667 15C9.16667 14.5417 8.79167 14.1667 8.33333 14.1667H5.83333C5.375 14.1667 5 14.5417 5 15C5 15.4583 5.375 15.8333 5.83333 15.8333H8.33333C8.79167 15.8333 9.16667 15.4583 9.16667 15ZM25 15C25 14.5417 24.625 14.1667 24.1667 14.1667H21.6667C21.2083 14.1667 20.8333 14.5417 20.8333 15C20.8333 15.4583 21.2083 15.8333 21.6667 15.8333H24.1667C24.625 15.8333 25 15.4583 25 15ZM10.5917 10.5917C10.9167 10.2667 10.9167 9.74167 10.5917 9.41667L8.925 7.75C8.6 7.425 8.075 7.425 7.75 7.75C7.425 8.075 7.425 8.6 7.75 8.925L9.41667 10.5917C9.58333 10.7583 9.79167 10.8333 10.0083 10.8333C10.225 10.8333 10.4333 10.75 10.6 10.5917H10.5917ZM22.2583 22.2583C22.5833 21.9333 22.5833 21.4083 22.2583 21.0833L20.5917 19.4167C20.2667 19.0917 19.7417 19.0917 19.4167 19.4167C19.0917 19.7417 19.0917 20.2667 19.4167 20.5917L21.0833 22.2583C21.25 22.425 21.4583 22.5 21.675 22.5C21.8917 22.5 22.1 22.4167 22.2667 22.2583H22.2583ZM8.925 22.2583L10.5917 20.5917C10.9167 20.2667 10.9167 19.7417 10.5917 19.4167C10.2667 19.0917 9.74167 19.0917 9.41667 19.4167L7.75 21.0833C7.425 21.4083 7.425 21.9333 7.75 22.2583C7.91667 22.425 8.125 22.5 8.34167 22.5C8.55833 22.5 8.76667 22.4167 8.93333 22.2583H8.925ZM20.5917 10.5917L22.2583 8.925C22.5833 8.6 22.5833 8.075 22.2583 7.75C21.9333 7.425 21.4083 7.425 21.0833 7.75L19.4167 9.41667C19.0917 9.74167 19.0917 10.2667 19.4167 10.5917C19.5833 10.7583 19.7917 10.8333 20.0083 10.8333C20.225 10.8333 20.4333 10.75 20.6 10.5917H20.5917Z" fill="black"/>
</g>
<defs>
<clipPath id="clip0_416_4888">
<rect width="20" height="20" fill="white" transform="translate(5 5)"/>
</clipPath>
</defs>
</svg>
