<svg width="50" height="50" viewBox="0 0 50 50" fill="none" xmlns="http://www.w3.org/2000/svg">
<path d="M19.6742 7.21884C17.8823 7.60511 16.5626 8.35618 15.1355 9.78321C14.1699 10.7382 13.9875 10.9849 13.4939 11.9828C13.1827 12.6051 12.8287 13.4957 12.6892 13.9678L12.4531 14.8261V24.9656V35.1051L12.6999 35.9635C13.7192 39.5901 16.5411 42.1759 20.1248 42.7768C20.5862 42.8519 22.3887 42.8841 25.3823 42.8626C30.2321 42.8197 30.1892 42.8197 31.7235 42.251C34.2986 41.2854 36.4445 38.8497 37.2063 36.0171L37.4531 35.1051V25.0193C37.4531 16.9291 37.4209 14.8047 37.3029 14.2897C36.6699 11.457 34.8136 9.11798 32.2493 7.91626C30.5003 7.10081 30.6184 7.12227 25.2214 7.09008C21.2943 7.06862 20.2536 7.09008 19.6742 7.21884ZM30.6184 9.32184C31.7772 9.7403 32.5175 10.2231 33.4402 11.1244C34.1055 11.7897 34.3523 12.133 34.7493 12.9485C35.5969 14.6866 35.5754 14.3648 35.5754 24.9656C35.5754 35.2231 35.5754 35.2017 34.9209 36.6394C33.9875 38.721 32.2385 40.1802 30.039 40.7382C29.2772 40.9313 28.848 40.9527 24.9531 40.9527C21.1012 40.9527 20.6184 40.9313 19.8887 40.7489C17.3244 40.0944 15.3501 38.1523 14.5776 35.5343C14.4059 34.9442 14.3845 34.1072 14.3523 25.5021C14.3201 15.5772 14.3415 15.03 14.8136 13.7317C15.4896 11.8648 17.0669 10.2124 18.8587 9.50425C20.1677 8.98922 20.2321 8.98922 25.1677 9.01068L29.8351 9.03214L30.6184 9.32184Z" fill="black"/>
<path d="M24.2985 15.9425C24.0409 16.1463 24.0409 16.1571 24.0088 18.8395L23.9766 21.5433L24.2985 21.8545C24.7276 22.2837 25.1783 22.2837 25.6075 21.8652L25.9186 21.5541V18.9038V16.2644L25.6504 16.0069C25.3285 15.6742 24.6633 15.642 24.2985 15.9425Z" fill="black"/>
</svg>
