<svg width="24" height="24" viewBox="0 0 24 24" fill="none" xmlns="http://www.w3.org/2000/svg">
<path d="M22.205 21.2531L17.806 16.8791C18.987 15.3181 19.616 13.2001 19.665 10.5501C19.56 4.45511 16.158 1.07711 10.077 1.03711C3.923 1.07611 0.5 4.64911 0.5 10.5491C0.5 16.7441 3.926 20.0611 10.089 20.0971C12.718 20.0811 14.828 19.4711 16.392 18.2921L20.795 22.6711C21.313 23.1631 21.926 22.9621 22.209 22.6671C22.592 22.2691 22.597 21.6421 22.205 21.2531ZM2.5 10.5671C2.597 5.53211 5.079 3.06811 10.076 3.03711C15.025 3.06911 17.579 5.60811 17.665 10.5491C17.571 15.6691 15.16 18.0671 10.089 18.0971C5.012 18.0671 2.6 15.6751 2.5 10.5671Z" fill="#A9A9A9"/>
</svg>
