<svg width="30" height="30" viewBox="0 0 30 30" fill="none" xmlns="http://www.w3.org/2000/svg">
<rect width="30" height="30" rx="15" fill="#141313"/>
<g clip-path="url(#clip0_416_4620)">
<path d="M5.75 14.9873C5.63429 8.10359 13.4933 3.45654 19.4541 6.90723L19.4658 6.91309L19.5947 6.98438L19.4658 7.05859C13.4427 10.3848 13.7818 19.4221 19.9102 22.3516L20.207 22.4863L20.3311 22.542L20.209 22.627C18.8218 23.5808 17.2001 24.1378 15.5195 24.2363C13.8389 24.3348 12.1629 23.9719 10.6738 23.1865C9.18479 22.4012 7.93915 21.2228 7.07129 19.7803C6.20348 18.3378 5.74625 16.6854 5.75 15.002V14.9873Z" fill="white" stroke="#141313" stroke-width="1.5"/>
</g>
<defs>
<clipPath id="clip0_416_4620">
<rect width="20" height="20" fill="white" transform="translate(5 5)"/>
</clipPath>
</defs>
</svg>
