<svg width="228" height="16" viewBox="0 0 228 16" fill="none" xmlns="http://www.w3.org/2000/svg">
<path d="M1.49012e-08 15V13.68C0.306667 13.6667 0.56 13.6267 0.76 13.56C0.973333 13.4933 1.13333 13.34 1.24 13.1C1.36 12.86 1.42 12.4733 1.42 11.94V4.28C1.42 3.92 1.42667 3.57333 1.44 3.24C1.46667 2.90667 1.48667 2.65333 1.5 2.48C1.28667 2.49333 1.02 2.50667 0.7 2.52C0.38 2.52 0.146667 2.52667 1.49012e-08 2.54V0.999999C0.92 0.986666 1.84 0.979999 2.76 0.979999C3.69333 0.979999 4.62 0.973333 5.54 0.96C7.14 0.946666 8.40667 1.24667 9.34 1.86C10.2867 2.46 10.7267 3.37333 10.66 4.6C10.6333 4.98667 10.5133 5.36667 10.3 5.74C10.0867 6.1 9.76667 6.42667 9.34 6.72C8.92667 7.01333 8.40667 7.24667 7.78 7.42V7.44C9.11333 7.65333 10.0933 8.1 10.72 8.78C11.3467 9.44667 11.66 10.1933 11.66 11.02C11.66 11.8867 11.4467 12.62 11.02 13.22C10.6067 13.8067 10.0333 14.2533 9.3 14.56C8.56667 14.8533 7.73333 15 6.8 15H1.49012e-08ZM4.24 13.58C4.48 13.58 4.70667 13.58 4.92 13.58C5.13333 13.58 5.34667 13.58 5.56 13.58C5.77333 13.5667 5.98 13.56 6.18 13.56C6.99333 13.52 7.58667 13.26 7.96 12.78C8.33333 12.3 8.52 11.6933 8.52 10.96C8.52 10.3467 8.39333 9.86667 8.14 9.52C7.88667 9.16 7.56 8.90667 7.16 8.76C6.77333 8.61333 6.36667 8.54 5.94 8.54C5.60667 8.54 5.32 8.54 5.08 8.54C4.84 8.54 4.58667 8.54667 4.32 8.56V11.82C4.32 12.18 4.31333 12.52 4.3 12.84C4.28667 13.16 4.26667 13.4067 4.24 13.58ZM4.32 7.14L5.36 7.12C5.92 7.10667 6.36 6.98 6.68 6.74C7.01333 6.5 7.24667 6.18 7.38 5.78C7.52667 5.36667 7.6 4.92 7.6 4.44C7.6 3.90667 7.49333 3.49333 7.28 3.2C7.06667 2.89333 6.8 2.67333 6.48 2.54C6.16 2.40667 5.82667 2.34667 5.48 2.36C5.26667 2.36 5.07333 2.39333 4.9 2.46C4.72667 2.52667 4.58667 2.68 4.48 2.92C4.37333 3.14667 4.32 3.52 4.32 4.04V7.14ZM22.0827 15.32C20.816 15.32 19.736 15.1067 18.8427 14.68C17.9627 14.2533 17.2493 13.6867 16.7027 12.98C16.156 12.26 15.756 11.4667 15.5027 10.6C15.2493 9.73333 15.1227 8.86667 15.1227 8C15.1227 7.16 15.2627 6.31333 15.5427 5.46C15.836 4.59333 16.2693 3.8 16.8427 3.08C17.4293 2.36 18.1627 1.78 19.0427 1.34C19.9227 0.9 20.956 0.68 22.1427 0.68C23.356 0.68 24.4027 0.9 25.2827 1.34C26.1627 1.78 26.8827 2.36667 27.4427 3.1C28.0027 3.82 28.416 4.60667 28.6827 5.46C28.9627 6.31333 29.1027 7.16 29.1027 8C29.1027 8.82667 28.956 9.66667 28.6627 10.52C28.3827 11.3733 27.9493 12.1667 27.3627 12.9C26.7893 13.62 26.0627 14.2067 25.1827 14.66C24.3027 15.1 23.2693 15.32 22.0827 15.32ZM22.3027 13.86C22.996 13.86 23.576 13.6933 24.0427 13.36C24.5093 13.0133 24.8827 12.5667 25.1627 12.02C25.4427 11.4733 25.6427 10.88 25.7627 10.24C25.8827 9.58667 25.9427 8.95333 25.9427 8.34C25.9427 7.42 25.8627 6.58 25.7027 5.82C25.5427 5.06 25.296 4.40667 24.9627 3.86C24.6293 3.3 24.2027 2.87333 23.6827 2.58C23.176 2.27333 22.576 2.12667 21.8827 2.14C21.2027 2.15333 20.6293 2.34 20.1627 2.7C19.696 3.04667 19.3227 3.5 19.0427 4.06C18.7627 4.60667 18.5627 5.20667 18.4427 5.86C18.3227 6.51333 18.2627 7.14667 18.2627 7.76C18.2627 8.38667 18.3293 9.05333 18.4627 9.76C18.6093 10.4667 18.836 11.1333 19.1427 11.76C19.4493 12.3867 19.8627 12.8933 20.3827 13.28C20.9027 13.6667 21.5427 13.86 22.3027 13.86ZM32.7594 13.68C33.066 13.6667 33.3194 13.6267 33.5194 13.56C33.7327 13.4933 33.8927 13.34 33.9994 13.1C34.1194 12.86 34.1794 12.4733 34.1794 11.94V4.28C34.1794 3.92 34.186 3.57333 34.1994 3.24C34.226 2.90667 34.246 2.65333 34.2594 2.48C34.046 2.49333 33.7794 2.50667 33.4594 2.52C33.1394 2.52 32.906 2.52667 32.7594 2.54V0.999999L38.5794 0.979999C39.8994 0.979999 41.0394 1.18 41.9994 1.58C42.9727 1.96667 43.766 2.49333 44.3794 3.16C45.006 3.82667 45.4727 4.57333 45.7794 5.4C46.086 6.21333 46.2394 7.03333 46.2394 7.86C46.2394 8.67333 46.0927 9.5 45.7994 10.34C45.5194 11.18 45.0727 11.9533 44.4594 12.66C43.846 13.3533 43.046 13.92 42.0594 14.36C41.0727 14.7867 39.8794 15 38.4794 15H32.7594V13.68ZM37.0794 11.72C37.0794 12.08 37.0727 12.4267 37.0594 12.76C37.046 13.0933 37.026 13.3467 36.9994 13.52C37.1327 13.5067 37.3127 13.5067 37.5394 13.52C37.7794 13.52 38.026 13.5267 38.2794 13.54C38.5327 13.54 38.7394 13.54 38.8994 13.54C39.6327 13.54 40.2594 13.3933 40.7794 13.1C41.3127 12.8067 41.746 12.4133 42.0794 11.92C42.426 11.4133 42.6794 10.8467 42.8394 10.22C42.9994 9.59333 43.0794 8.94667 43.0794 8.28C43.0794 6.92 42.8927 5.80667 42.5194 4.94C42.146 4.07333 41.6194 3.42667 40.9394 3C40.2727 2.57333 39.4727 2.34667 38.5394 2.32C38.2194 2.30667 37.946 2.34 37.7194 2.42C37.506 2.48667 37.346 2.64 37.2394 2.88C37.1327 3.12 37.0794 3.5 37.0794 4.02V11.72ZM52.6483 15V13.68C52.9549 13.6667 53.2083 13.6267 53.4083 13.56C53.6216 13.4933 53.7816 13.34 53.8883 13.1C54.0083 12.86 54.0683 12.4733 54.0683 11.94V10.2L50.3883 4.38C50.2016 4.07333 50.0283 3.73333 49.8683 3.36C49.7083 2.98667 49.6283 2.69333 49.6283 2.48C49.4149 2.49333 49.2349 2.50667 49.0883 2.52C48.9416 2.52 48.7949 2.52667 48.6483 2.54V0.999999H54.5483V2.32C54.1616 2.29333 53.8416 2.33333 53.5883 2.44C53.3349 2.54667 53.1816 2.72 53.1283 2.96C53.0749 3.18667 53.1549 3.48667 53.3683 3.86L54.8883 6.36C54.9549 6.46667 55.0549 6.64 55.1883 6.88C55.3216 7.10667 55.4549 7.35333 55.5883 7.62C55.7349 7.87333 55.8416 8.1 55.9083 8.3H55.9283C55.9949 8.14 56.1083 7.9 56.2683 7.58C56.4283 7.26 56.6283 6.84667 56.8683 6.34L57.9083 4.3C57.9749 4.15333 58.0683 3.96667 58.1883 3.74C58.3083 3.5 58.4349 3.26667 58.5683 3.04C58.7149 2.8 58.8483 2.60667 58.9683 2.46C58.7549 2.47333 58.4816 2.48667 58.1483 2.5C57.8149 2.51333 57.5749 2.52667 57.4283 2.54V0.999999H61.8483V2.32C61.3816 2.38667 60.9816 2.58 60.6483 2.9C60.3149 3.20667 59.9549 3.72667 59.5683 4.46C59.1416 5.28667 58.7083 6.12 58.2683 6.96C57.8283 7.8 57.3949 8.63333 56.9683 9.46C56.9683 9.64667 56.9683 9.83333 56.9683 10.02C56.9683 10.2067 56.9683 10.4 56.9683 10.6C56.9683 10.7867 56.9683 10.9733 56.9683 11.16C56.9683 11.3467 56.9683 11.5333 56.9683 11.72C56.9683 12.08 56.9616 12.4267 56.9483 12.76C56.9349 13.0933 56.9149 13.3467 56.8883 13.52C57.1149 13.4933 57.4016 13.48 57.7483 13.48C58.1083 13.4667 58.3549 13.46 58.4883 13.46V15H52.6483ZM79.242 15.32C77.9754 15.32 76.8954 15.1067 76.002 14.68C75.122 14.2533 74.4087 13.6867 73.862 12.98C73.3154 12.26 72.9154 11.4667 72.662 10.6C72.4087 9.73333 72.282 8.86667 72.282 8C72.282 7.16 72.422 6.31333 72.702 5.46C72.9954 4.59333 73.4287 3.8 74.002 3.08C74.5887 2.36 75.322 1.78 76.202 1.34C77.082 0.9 78.1154 0.68 79.302 0.68C80.5154 0.68 81.562 0.9 82.442 1.34C83.322 1.78 84.042 2.36667 84.602 3.1C85.162 3.82 85.5754 4.60667 85.842 5.46C86.122 6.31333 86.262 7.16 86.262 8C86.262 8.82667 86.1154 9.66667 85.822 10.52C85.542 11.3733 85.1087 12.1667 84.522 12.9C83.9487 13.62 83.222 14.2067 82.342 14.66C81.462 15.1 80.4287 15.32 79.242 15.32ZM79.462 13.86C80.1554 13.86 80.7354 13.6933 81.202 13.36C81.6687 13.0133 82.042 12.5667 82.322 12.02C82.602 11.4733 82.802 10.88 82.922 10.24C83.042 9.58667 83.102 8.95333 83.102 8.34C83.102 7.42 83.022 6.58 82.862 5.82C82.702 5.06 82.4554 4.40667 82.122 3.86C81.7887 3.3 81.362 2.87333 80.842 2.58C80.3354 2.27333 79.7354 2.12667 79.042 2.14C78.362 2.15333 77.7887 2.34 77.322 2.7C76.8554 3.04667 76.482 3.5 76.202 4.06C75.922 4.60667 75.722 5.20667 75.602 5.86C75.482 6.51333 75.422 7.14667 75.422 7.76C75.422 8.38667 75.4887 9.05333 75.622 9.76C75.7687 10.4667 75.9954 11.1333 76.302 11.76C76.6087 12.3867 77.022 12.8933 77.542 13.28C78.062 13.6667 78.702 13.86 79.462 13.86ZM89.9187 15V13.68C90.2254 13.6667 90.4787 13.6267 90.6787 13.56C90.8921 13.4933 91.0521 13.34 91.1587 13.1C91.2787 12.86 91.3387 12.4733 91.3387 11.94V4.28C91.3387 3.92 91.3454 3.57333 91.3587 3.24C91.3854 2.90667 91.4054 2.65333 91.4187 2.48C91.2054 2.49333 90.9387 2.50667 90.6187 2.52C90.2987 2.52 90.0654 2.52667 89.9187 2.54V0.999999H99.9187L100.039 4.88H98.7187C98.7187 4.14667 98.5921 3.59333 98.3387 3.22C98.0854 2.84667 97.7721 2.6 97.3987 2.48C97.0254 2.34667 96.6587 2.28667 96.2987 2.3L95.5787 2.32C95.2987 2.32 95.0587 2.36 94.8587 2.44C94.6587 2.50667 94.5054 2.66667 94.3987 2.92C94.2921 3.16 94.2387 3.54 94.2387 4.06V7.54H96.2987L96.2187 5.82H97.7587V10.68H96.4387C96.4387 10.12 96.3521 9.71333 96.1787 9.46C96.0054 9.20667 95.7654 9.05333 95.4587 9C95.1654 8.93333 94.8387 8.90667 94.4787 8.92H94.2387V11.72C94.2387 12.08 94.2321 12.4267 94.2187 12.76C94.2054 13.0933 94.1854 13.3467 94.1587 13.52C94.3054 13.5067 94.4987 13.5 94.7387 13.5C94.9787 13.4867 95.2121 13.48 95.4387 13.48C95.6787 13.4667 95.8454 13.46 95.9387 13.46V15H89.9187Z" fill="#41C1BA"/>
<path d="M117.798 10.18C117.798 9.62 117.712 9.21333 117.538 8.96C117.365 8.70667 117.125 8.55333 116.818 8.5C116.525 8.43333 116.198 8.40667 115.838 8.42L115.318 8.44V11.72C115.318 12.08 115.312 12.42 115.298 12.74C115.285 13.06 115.265 13.3067 115.238 13.48H117.918C118.318 13.48 118.705 13.3933 119.078 13.22C119.452 13.0333 119.758 12.7333 119.998 12.32C120.238 11.8933 120.358 11.32 120.358 10.6H121.658L121.558 15H110.998V13.68C111.305 13.6667 111.558 13.6267 111.758 13.56C111.972 13.4933 112.132 13.34 112.238 13.1C112.358 12.86 112.418 12.4733 112.418 11.94V4.28C112.418 3.92 112.425 3.57333 112.438 3.24C112.465 2.90667 112.485 2.65333 112.498 2.48C112.285 2.49333 112.018 2.50667 111.698 2.52C111.378 2.52 111.145 2.52667 110.998 2.54V0.999999H120.998L121.118 4.88H119.798C119.798 4.14667 119.672 3.59333 119.418 3.22C119.165 2.84667 118.852 2.6 118.478 2.48C118.105 2.34667 117.738 2.28667 117.378 2.3L116.658 2.32C116.378 2.32 116.138 2.36 115.938 2.44C115.738 2.50667 115.585 2.66667 115.478 2.92C115.372 3.16 115.318 3.54 115.318 4.06V7.06H117.658L117.578 5.32H119.118V10.18H117.798ZM130.942 15.12L126.342 4.38C126.209 4.04667 126.082 3.7 125.962 3.34C125.842 2.98 125.782 2.69333 125.782 2.48C125.569 2.49333 125.369 2.50667 125.182 2.52C125.009 2.52 124.849 2.52667 124.702 2.54V0.999999H130.602V2.32C130.109 2.30667 129.729 2.41333 129.462 2.64C129.209 2.86667 129.202 3.27333 129.442 3.86C129.749 4.60667 130.056 5.36 130.362 6.12C130.669 6.88 130.976 7.63333 131.282 8.38C131.509 8.94 131.702 9.43333 131.862 9.86C132.022 10.2733 132.209 10.7333 132.422 11.24H132.442C132.589 10.84 132.742 10.3933 132.902 9.9C133.076 9.40667 133.242 8.93333 133.402 8.48C133.576 8.01333 133.742 7.54667 133.902 7.08C134.076 6.61333 134.249 6.15333 134.422 5.7C134.596 5.23333 134.762 4.76667 134.922 4.3C134.989 4.07333 135.096 3.76667 135.242 3.38C135.402 2.99333 135.569 2.69333 135.742 2.48C135.529 2.49333 135.256 2.50667 134.922 2.52C134.589 2.52 134.349 2.52667 134.202 2.54V0.999999H138.702V2.32C138.249 2.33333 137.856 2.5 137.522 2.82C137.189 3.14 136.876 3.68667 136.582 4.46C136.356 5.04667 136.129 5.64 135.902 6.24C135.689 6.82667 135.469 7.42 135.242 8.02C135.029 8.60667 134.809 9.2 134.582 9.8C134.356 10.3867 134.129 10.98 133.902 11.58C133.689 12.1667 133.469 12.7533 133.242 13.34C133.029 13.9267 132.809 14.52 132.582 15.12H130.942ZM147.642 2.32C147.349 2.33333 147.096 2.37333 146.882 2.44C146.669 2.50667 146.502 2.66 146.382 2.9C146.276 3.12667 146.222 3.51333 146.222 4.06V11.72C146.222 12.08 146.216 12.4267 146.202 12.76C146.189 13.0933 146.169 13.3467 146.142 13.52C146.356 13.4933 146.622 13.48 146.942 13.48C147.276 13.4667 147.509 13.46 147.642 13.46V15H141.902V13.68C142.209 13.6667 142.462 13.6267 142.662 13.56C142.876 13.4933 143.036 13.34 143.142 13.1C143.262 12.86 143.322 12.4733 143.322 11.94V4.28C143.322 3.92 143.329 3.57333 143.342 3.24C143.369 2.90667 143.389 2.65333 143.402 2.48C143.189 2.49333 142.922 2.50667 142.602 2.52C142.282 2.52 142.049 2.52667 141.902 2.54V0.999999H147.642V2.32ZM151.837 13.68C152.143 13.6667 152.397 13.6267 152.597 13.56C152.81 13.4933 152.97 13.34 153.077 13.1C153.197 12.86 153.257 12.4733 153.257 11.94V4.28C153.257 3.92 153.263 3.57333 153.277 3.24C153.303 2.90667 153.323 2.65333 153.337 2.48C153.123 2.49333 152.857 2.50667 152.537 2.52C152.217 2.52 151.983 2.52667 151.837 2.54V0.999999L157.657 0.979999C158.977 0.979999 160.117 1.18 161.077 1.58C162.05 1.96667 162.843 2.49333 163.457 3.16C164.083 3.82667 164.55 4.57333 164.857 5.4C165.163 6.21333 165.317 7.03333 165.317 7.86C165.317 8.67333 165.17 9.5 164.877 10.34C164.597 11.18 164.15 11.9533 163.537 12.66C162.923 13.3533 162.123 13.92 161.137 14.36C160.15 14.7867 158.957 15 157.557 15H151.837V13.68ZM156.157 11.72C156.157 12.08 156.15 12.4267 156.137 12.76C156.123 13.0933 156.103 13.3467 156.077 13.52C156.21 13.5067 156.39 13.5067 156.617 13.52C156.857 13.52 157.103 13.5267 157.357 13.54C157.61 13.54 157.817 13.54 157.977 13.54C158.71 13.54 159.337 13.3933 159.857 13.1C160.39 12.8067 160.823 12.4133 161.157 11.92C161.503 11.4133 161.757 10.8467 161.917 10.22C162.077 9.59333 162.157 8.94667 162.157 8.28C162.157 6.92 161.97 5.80667 161.597 4.94C161.223 4.07333 160.697 3.42667 160.017 3C159.35 2.57333 158.55 2.34667 157.617 2.32C157.297 2.30667 157.023 2.34 156.797 2.42C156.583 2.48667 156.423 2.64 156.317 2.88C156.21 3.12 156.157 3.5 156.157 4.02V11.72ZM175.739 10.18C175.739 9.62 175.652 9.21333 175.479 8.96C175.306 8.70667 175.066 8.55333 174.759 8.5C174.466 8.43333 174.139 8.40667 173.779 8.42L173.259 8.44V11.72C173.259 12.08 173.252 12.42 173.239 12.74C173.226 13.06 173.206 13.3067 173.179 13.48H175.859C176.259 13.48 176.646 13.3933 177.019 13.22C177.392 13.0333 177.699 12.7333 177.939 12.32C178.179 11.8933 178.299 11.32 178.299 10.6H179.599L179.499 15H168.939V13.68C169.246 13.6667 169.499 13.6267 169.699 13.56C169.912 13.4933 170.072 13.34 170.179 13.1C170.299 12.86 170.359 12.4733 170.359 11.94V4.28C170.359 3.92 170.366 3.57333 170.379 3.24C170.406 2.90667 170.426 2.65333 170.439 2.48C170.226 2.49333 169.959 2.50667 169.639 2.52C169.319 2.52 169.086 2.52667 168.939 2.54V0.999999H178.939L179.059 4.88H177.739C177.739 4.14667 177.612 3.59333 177.359 3.22C177.106 2.84667 176.792 2.6 176.419 2.48C176.046 2.34667 175.679 2.28667 175.319 2.3L174.599 2.32C174.319 2.32 174.079 2.36 173.879 2.44C173.679 2.50667 173.526 2.66667 173.419 2.92C173.312 3.16 173.259 3.54 173.259 4.06V7.06H175.599L175.519 5.32H177.059V10.18H175.739ZM194.26 15.2L187.86 7.02C187.686 6.79333 187.506 6.55333 187.32 6.3C187.133 6.04667 186.946 5.78667 186.76 5.52H186.74L186.78 11.72C186.78 12.08 186.773 12.4267 186.76 12.76C186.746 13.0933 186.726 13.3467 186.7 13.52C186.913 13.4933 187.18 13.48 187.5 13.48C187.833 13.4667 188.066 13.46 188.2 13.46V15H183.64V13.68C183.946 13.6667 184.2 13.6267 184.4 13.56C184.613 13.4933 184.773 13.34 184.88 13.1C185 12.86 185.06 12.4733 185.06 11.94L185.02 4.28C185.02 3.92 185.026 3.57333 185.04 3.24C185.053 2.90667 185.073 2.65333 185.1 2.48C184.886 2.49333 184.613 2.50667 184.28 2.52C183.96 2.52 183.726 2.52667 183.58 2.54V0.999999H186.72L192.84 8.72C193.173 9.14667 193.446 9.51333 193.66 9.82C193.886 10.1267 194.08 10.3933 194.24 10.62H194.26V4.28C194.26 3.92 194.266 3.57333 194.28 3.24C194.293 2.90667 194.306 2.65333 194.32 2.48C194.106 2.49333 193.84 2.50667 193.52 2.52C193.2 2.52 192.966 2.52667 192.82 2.54V0.999999H197.38V2.32C197.086 2.33333 196.833 2.37333 196.62 2.44C196.406 2.50667 196.24 2.66 196.12 2.9C196.013 3.12667 195.96 3.51333 195.96 4.06V15.2H194.26ZM211.413 5.48C211.24 4.37333 210.866 3.54 210.293 2.98C209.733 2.42 208.986 2.13333 208.053 2.12C207.36 2.12 206.753 2.28 206.233 2.6C205.713 2.92 205.28 3.34667 204.933 3.88C204.6 4.41333 204.346 5.02 204.173 5.7C204.013 6.38 203.933 7.08 203.933 7.8C203.933 8.94667 204.093 9.96667 204.413 10.86C204.746 11.74 205.226 12.4333 205.853 12.94C206.48 13.4467 207.24 13.7 208.133 13.7C208.973 13.7 209.806 13.4867 210.633 13.06C211.46 12.62 212.153 12.0133 212.713 11.24L213.673 12.12C213.02 13.0133 212.333 13.6933 211.613 14.16C210.893 14.6133 210.186 14.92 209.493 15.08C208.813 15.24 208.2 15.32 207.653 15.32C206.626 15.32 205.693 15.14 204.853 14.78C204.013 14.4067 203.286 13.9 202.673 13.26C202.073 12.6067 201.606 11.8533 201.273 11C200.953 10.1333 200.793 9.2 200.793 8.2C200.793 7.29333 200.94 6.39333 201.233 5.5C201.526 4.60667 201.96 3.8 202.533 3.08C203.12 2.34667 203.853 1.76667 204.733 1.34C205.613 0.9 206.633 0.68 207.793 0.68C208.313 0.68 208.88 0.766666 209.493 0.94C210.12 1.1 210.706 1.34 211.253 1.66L211.173 0.819999H212.713V5.48H211.413ZM223.863 10.18C223.863 9.62 223.776 9.21333 223.603 8.96C223.429 8.70667 223.189 8.55333 222.883 8.5C222.589 8.43333 222.263 8.40667 221.903 8.42L221.383 8.44V11.72C221.383 12.08 221.376 12.42 221.363 12.74C221.349 13.06 221.329 13.3067 221.303 13.48H223.983C224.383 13.48 224.769 13.3933 225.143 13.22C225.516 13.0333 225.823 12.7333 226.062 12.32C226.303 11.8933 226.423 11.32 226.423 10.6H227.723L227.623 15H217.063V13.68C217.369 13.6667 217.623 13.6267 217.823 13.56C218.036 13.4933 218.196 13.34 218.303 13.1C218.423 12.86 218.483 12.4733 218.483 11.94V4.28C218.483 3.92 218.489 3.57333 218.503 3.24C218.529 2.90667 218.549 2.65333 218.562 2.48C218.349 2.49333 218.083 2.50667 217.763 2.52C217.443 2.52 217.209 2.52667 217.063 2.54V0.999999H227.063L227.183 4.88H225.863C225.863 4.14667 225.736 3.59333 225.483 3.22C225.229 2.84667 224.916 2.6 224.543 2.48C224.169 2.34667 223.803 2.28667 223.443 2.3L222.723 2.32C222.443 2.32 222.203 2.36 222.003 2.44C221.803 2.50667 221.649 2.66667 221.543 2.92C221.436 3.16 221.383 3.54 221.383 4.06V7.06H223.723L223.643 5.32H225.183V10.18H223.863Z" fill="#FFA51F"/>
</svg>
